<svg width="12" height="12" viewBox="0 0 12 12" version="1.1" xmlns="http://www.w3.org/2000/svg" xmlns:xlink="http://www.w3.org/1999/xlink">
<title>ic_navigation</title>
<desc>Created using Figma</desc>
<g id="Canvas" transform="translate(22269 18596)">
<g id="ic_navigation">
<g id="Ellipse">
<use xlink:href="#path0_fill" transform="translate(-22269 -18596)" fill="#E35F5F"/>
</g>
<g id="Ellipse">
<use xlink:href="#path1_fill" transform="translate(-22265.7 -18592.7)" fill="#FFFFFF"/>
</g>
</g>
</g>
<defs>
<path id="path0_fill" d="M 12 6C 12 9.31371 9.31371 12 6 12C 2.68629 12 0 9.31371 0 6C 0 2.68629 2.68629 0 6 0C 9.31371 0 12 2.68629 12 6Z"/>
<path id="path1_fill" d="M 5.33333 2.66667C 5.33333 4.13943 4.13943 5.33333 2.66667 5.33333C 1.19391 5.33333 0 4.13943 0 2.66667C 0 1.19391 1.19391 0 2.66667 0C 4.13943 0 5.33333 1.19391 5.33333 2.66667Z"/>
</defs>
</svg>
